# xmcd
# 
# Track frame offsets:
#     150
#     16075
#     27700
#     44103
#     59363
#     71799
#     83324
#     96658
#     107862
#     118929
#     131895
#     144364
#     159475
#     169810
#     185480
#     195067
#     208355
#     222028
#     237946
#     252253
#     273937
# 
# Disc length: 4440
# 
# Revision: 0
# Processed by: cddbd v1.5.2PL0 Copyright (c) Steve Scherf et al.
# Submitted via: fre:ac v1.0.17
# 
DISCID=3b115615
DTITLE=Dinah Washington - The Collection [CD1]
DYEAR=2005
DGENRE=Blues
TTITLE0=Drinking Again
TTITLE1=Destination Moon
TTITLE2=Miss You
TTITLE3=Is You Or Is You Ain't My Baby?
TTITLE4=You're Nobody Till Somebody Loves You
TTITLE5=Red Sails In The Sunset
TTITLE6=Coquette
TTITLE7=Fly Me To The Moon
TTITLE8=You're A Sweetheart
TTITLE9=That's My Desire
TTITLE10=Love Is The Sweetest Thing
TTITLE11=I Used To Love You
TTITLE12=Do Nothin' Till You Hear From Me
TTITLE13=These Foolish Things
TTITLE14=Baby Won't You Please Come Home
TTITLE15=I'll Be Around
TTITLE16=Lover Man (Oh Where Can You Be)
TTITLE17=The Man That Got Away
TTITLE18=Say It Isn't So
TTITLE19=On The Street Of Regret
TTITLE20=Data
EXTD=
EXTT0=
EXTT1=
EXTT2=
EXTT3=
EXTT4=
EXTT5=
EXTT6=
EXTT7=
EXTT8=
EXTT9=
EXTT10=
EXTT11=
EXTT12=
EXTT13=
EXTT14=
EXTT15=
EXTT16=
EXTT17=
EXTT18=
EXTT19=
EXTT20=
PLAYORDER=
